<?xml version="1.0" encoding="UTF-8" standalone="no"?>
<svg
   width="128"
   height="128"
   viewBox="0 0 128 128"
   version="1.1"
   id="svg1"
   sodipodi:docname="influxdb.svg"
   inkscape:version="1.4.2 (ebf0e940d0, 2025-05-08)"
   xmlns:inkscape="http://www.inkscape.org/namespaces/inkscape"
   xmlns:sodipodi="http://sodipodi.sourceforge.net/DTD/sodipodi-0.dtd"
   xmlns="http://www.w3.org/2000/svg"
   xmlns:svg="http://www.w3.org/2000/svg">
  <defs
     id="defs1" />
  <sodipodi:namedview
     id="namedview1"
     pagecolor="#ffffff"
     bordercolor="#000000"
     borderopacity="0.25"
     inkscape:showpageshadow="2"
     inkscape:pageopacity="0.0"
     inkscape:pagecheckerboard="0"
     inkscape:deskcolor="#d1d1d1"
     inkscape:zoom="6.25"
     inkscape:cx="64"
     inkscape:cy="64"
     inkscape:window-width="1920"
     inkscape:window-height="1008"
     inkscape:window-x="0"
     inkscape:window-y="0"
     inkscape:window-maximized="1"
     inkscape:current-layer="svg1" />
  <path
     style="fill-rule:evenodd;fill:#020a47;fill-opacity:1"
     d="m94.543 87.625 29.379-6.75a3.35 3.35 0 0 0 1.258-.543 3.358 3.358 0 0 0 1.383-2.305c.058-.46.019-.925-.114-1.37L113.957 22.34a3.499 3.499 0 0 0-1.59-2.14 3.49 3.49 0 0 0-2.633-.391l-29.37 6.75c-.887.23-1.65.8-2.118 1.593a3.452 3.452 0 0 0-.383 2.625L90.32 85.094a3.499 3.499 0 0 0 1.59 2.14c.79.477 1.738.618 2.633.391Zm-10.125 33.566 35.621-33.054c1.344-1.36 1.004-2.196-.844-1.528l-24.484 5.575a6.222 6.222 0 0 0-2.715 1.46 6.221 6.221 0 0 0-1.676 2.586l-7.425 23.954c-.508 1.855.168 2.363 1.523 1.007Zm-64.992-10.789 53.344 16.52c.91.172 1.851.012 2.656-.45a3.947 3.947 0 0 0 1.734-2.07l8.938-28.68a3.48 3.48 0 0 0 .117-1.378 3.492 3.492 0 0 0-.418-1.317 3.473 3.473 0 0 0-.89-1.058 3.562 3.562 0 0 0-1.227-.633L30.336 74.973a3.545 3.545 0 0 0-2.695.304 3.57 3.57 0 0 0-1.696 2.118l-8.879 28.62a3.556 3.556 0 0 0 .278 2.68 3.547 3.547 0 0 0 2.082 1.707ZM2.2 51.7l10.816 47.452c.336 1.856 1.207 1.856 1.68 0l7.425-23.949a6.709 6.709 0 0 0 .031-3.113 6.783 6.783 0 0 0-1.37-2.793L3.721 50.852c-1.183-1.395-2.066-1.008-1.523.847ZM43.906.973 3.046 38.875a3.47 3.47 0 0 0-.168 4.848l20.43 22.144a3.483 3.483 0 0 0 2.415 1.098 3.48 3.48 0 0 0 2.484-.926l40.848-37.965a3.446 3.446 0 0 0 .172-4.847L48.832 1.094A3.48 3.48 0 0 0 47.722.3a3.467 3.467 0 0 0-1.326-.3 3.419 3.419 0 0 0-1.34.238 3.435 3.435 0 0 0-1.149.735Zm39.496 85.804c1.864.508 3.035-.496 2.54-2.422L74.124 33.082c-.508-1.855-2.035-2.363-3.375-1.02L32.258 67.895c-1.352 1.343-1.016 2.859.836 3.367Zm20.09-71.515L56.898.972c-1.851-.511-2.187.169-.675 1.684l17.054 18.387a6.549 6.549 0 0 0 2.7 1.527 6.58 6.58 0 0 0 3.093.11l24.485-5.563c1.8-.508 1.8-1.355-.063-1.855Zm0 0"
     id="path1" />
  <path
     style="fill:#0000ff;stroke-width:0.16"
     d="M 83.76,86.766142 C 83.473854,86.697523 69.323597,82.342552 41.929952,73.892267 36.787426,72.305922 32.420708,70.903691 32.226133,70.776202 31.734926,70.45435 31.465954,69.730307 31.604041,69.1016 31.672447,68.790154 32.01976,68.289266 32.471181,67.851032 32.885347,67.448965 41.770145,59.164 52.215174,49.44 64.298536,38.190764 71.412072,31.678078 71.772309,31.534772 c 0.803976,-0.319829 1.552217,0.04997 1.989304,0.98315 C 74.142314,33.330723 85.92,84.365568 85.92,85.202414 c 0,0.784346 -0.243147,1.181804 -0.887739,1.451132 -0.555128,0.231947 -0.715408,0.246131 -1.272261,0.112596 z"
     id="path2" />
  <path
     style="fill:#0000ff;stroke-width:0.16"
     d="M 92.579962,87.444942 C 91.855515,87.186714 90.990214,86.397747 90.660271,85.694602 90.481005,85.312566 78.958601,35.46472 78.000616,30.926823 c -0.35794,-1.695535 0.207764,-3.130427 1.526336,-3.871506 0.439236,-0.246864 5.362074,-1.448842 15.557802,-3.798651 16.388006,-3.776942 16.133266,-3.734491 17.342306,-2.889989 0.33712,0.235472 0.77414,0.666593 0.97117,0.958048 0.27365,0.404797 1.84701,7.007207 6.66351,27.962597 3.4679,15.087972 6.3531,27.660652 6.41154,27.939289 0.28008,1.335267 -0.90224,3.071755 -2.37549,3.488935 -1.59485,0.451611 -30.178203,6.96434 -30.53508,6.957432 -0.19949,-0.0039 -0.641727,-0.106479 -0.982748,-0.228036 z"
     id="path3" />
  <path
     style="fill:#0000ff;stroke-width:0.16"
     d="M 24.348982,66.44 C 23.708301,66.090925 21.398358,63.676781 13.170711,54.757483 7.4668202,48.574099 2.638,43.216774 2.44,42.852318 1.933399,41.919822 1.9608642,40.895374 2.52,39.868331 2.8735277,39.218957 7.0163371,35.298442 23.6,19.919434 34.952,9.3920558 44.517213,0.6343856 44.856027,0.45794462 45.668814,0.03467869 46.963213,0.03269661 47.787968,0.45345501 48.515606,0.82466882 69.163435,23.143176 69.68,24.116838 70.178102,25.055701 70.110781,26.33448 69.514712,27.256509 68.850957,28.283235 28.400074,65.856294 27.33005,66.44 c -0.523269,0.285446 -1.046663,0.44 -1.49005,0.44 -0.443152,0 -0.967398,-0.154706 -1.491018,-0.44 z"
     id="path4" />
  <path
     style="fill:#0000ff;stroke-width:0.16"
     d="M 76.067688,22.503821 C 74.225266,21.90021 74.092816,21.773962 64.815392,11.778384 59.922926,6.5072 55.794474,2.00667 55.641054,1.7772065 55.214136,1.138684 55.284699,0.96 55.963773,0.96 c 0.611733,0 47.147647,14.183696 48.196227,14.689742 0.73507,0.354746 0.79604,0.74135 0.16812,1.066058 -0.27047,0.139869 -6.052952,1.520541 -12.849947,3.068162 -12.81452,2.917761 -14.10904,3.146235 -15.410485,2.719859 z"
     id="path5" />
  <path
     style="fill:#0000ff;stroke-width:0.16"
     d="m 45.92,118.53682 c -19.76986,-6.13048 -26.967884,-8.42596 -27.44,-8.75075 -0.912577,-0.6278 -1.435797,-1.64236 -1.416174,-2.74607 0.01199,-0.67436 1.068969,-4.26334 4.523102,-15.358216 2.479102,-7.96302 4.686135,-14.783106 4.904517,-15.155748 0.229849,-0.392208 0.687088,-0.847499 1.085762,-1.081137 1.479325,-0.866942 -0.568146,-1.408518 29.302793,7.750865 19.962405,6.12111 27.367027,8.455316 27.827717,8.772311 0.846187,0.582253 1.372283,1.609672 1.372283,2.679949 0,1.183704 -8.895392,29.758656 -9.556861,30.699816 -0.622379,0.88553 -1.904222,1.53725 -2.981409,1.5158 -0.602572,-0.012 -7.969391,-2.23279 -27.62173,-8.32682 z"
     id="path6" />
  <path
     style="fill:#0000ff;stroke-width:0.16"
     d="M 13.371468,99.96 C 13.254756,99.674 10.654114,88.438888 7.5922624,74.993085 2.6545484,53.309624 2.0522721,50.519156 2.2642233,50.307205 c 0.1396103,-0.13961 0.3554441,-0.194265 0.5191218,-0.131456 0.154087,0.05913 4.3290615,4.485433 9.2777209,9.836232 6.82358,7.37808 9.101422,9.940833 9.427411,10.606589 0.56416,1.152166 0.810096,2.351571 0.707579,3.450806 -0.100629,1.079013 -7.719678,25.729789 -8.076439,26.130624 -0.355392,0.3993 -0.507127,0.35062 -0.748149,-0.24 z"
     id="path7" />
  <path
     style="fill:#0000ff;stroke-width:0.16"
     d="M 82.986667,121.81333 C 82.928,121.75467 82.88,121.44065 82.88,121.11552 c 0,-0.78399 7.545172,-25.099249 8.05655,-25.963239 0.550488,-0.930067 1.631694,-1.936511 2.58345,-2.404812 0.529015,-0.260296 4.539595,-1.243018 11.84,-2.901183 6.072,-1.379153 11.93595,-2.720248 13.03099,-2.980212 1.7733,-0.420979 2.01734,-0.446314 2.23196,-0.2317 0.21461,0.214614 0.18935,0.310743 -0.231,0.879183 -0.50412,0.681722 -36.307446,33.944333 -36.849213,34.234273 -0.377402,0.20198 -0.415147,0.20643 -0.55607,0.0655 z"
     id="path8" />
</svg>
